<svg width="18" height="24" viewBox="0 0 18 24" fill="none" xmlns="http://www.w3.org/2000/svg">
<path d="M9.50347 22.5648C9.48947 22.5782 9.47582 22.5913 9.46253 22.604C9.44923 22.5913 9.43558 22.5782 9.42158 22.5648C9.17898 22.3326 8.83139 21.9929 8.41383 21.5658C7.57813 20.7108 6.46504 19.5081 5.35329 18.1154C4.24029 16.7211 3.13668 15.1465 2.31329 13.5477C1.48686 11.943 0.962524 10.3517 0.962524 8.91431C0.962524 6.76646 1.85265 4.70204 3.44452 3.1765C5.0371 1.65028 7.20148 0.789307 9.46252 0.789307C11.7236 0.789307 13.8879 1.65028 15.4805 3.1765C17.0724 4.70204 17.9625 6.76646 17.9625 8.91431C17.9625 10.3517 17.4382 11.943 16.6118 13.5477C15.7884 15.1465 14.6848 16.7211 13.5718 18.1154C12.46 19.5081 11.3469 20.7108 10.5112 21.5658C10.0937 21.9929 9.74607 22.3326 9.50347 22.5648ZM5.93459 12.3247C6.87375 13.2247 8.14315 13.7268 9.46252 13.7268C10.7819 13.7268 12.0513 13.2247 12.9905 12.3247C13.9303 11.424 14.4625 10.1977 14.4625 8.91431C14.4625 7.63092 13.9303 6.40463 12.9905 5.50391C12.0513 4.60389 10.7819 4.10181 9.46252 4.10181C8.14315 4.10181 6.87375 4.60389 5.93459 5.50391C4.99471 6.40463 4.46252 7.63092 4.46252 8.91431C4.46252 10.1977 4.99471 11.424 5.93459 12.3247Z" fill="#33CC99" stroke="white"/>
</svg>
