<svg width="18" height="24" viewBox="0 0 18 24" fill="none" xmlns="http://www.w3.org/2000/svg">
<path d="M9 23.5068C9 23.5068 18 15.3332 18 9.13184C18 6.84434 17.0518 4.65054 15.364 3.03304C13.6761 1.41554 11.3869 0.506836 9 0.506836C6.61305 0.506836 4.32387 1.41554 2.63604 3.03304C0.948211 4.65054 3.55683e-08 6.84434 0 9.13184C0 15.3332 9 23.5068 9 23.5068ZM9 13.4443C7.80653 13.4443 6.66193 12.99 5.81802 12.1812C4.97411 11.3725 4.5 10.2756 4.5 9.13184C4.5 7.98809 4.97411 6.89119 5.81802 6.08244C6.66193 5.27369 7.80653 4.81934 9 4.81934C10.1935 4.81934 11.3381 5.27369 12.182 6.08244C13.0259 6.89119 13.5 7.98809 13.5 9.13184C13.5 10.2756 13.0259 11.3725 12.182 12.1812C11.3381 12.99 10.1935 13.4443 9 13.4443Z" fill="#F84777"/>
</svg>
