<svg width="18" height="24" viewBox="0 0 18 24" fill="none" xmlns="http://www.w3.org/2000/svg">
<path d="M9.61345 22.5648C9.59945 22.5782 9.5858 22.5913 9.57251 22.604C9.55922 22.5913 9.54557 22.5782 9.53157 22.5648C9.28897 22.3326 8.94137 21.9929 8.52381 21.5658C7.68812 20.7108 6.57503 19.5081 5.46327 18.1154C4.35027 16.7211 3.24666 15.1465 2.42327 13.5477C1.59684 11.943 1.07251 10.3517 1.07251 8.91431C1.07251 6.76646 1.96264 4.70204 3.5545 3.1765C5.14709 1.65028 7.31147 0.789307 9.57251 0.789307C11.8336 0.789307 13.9979 1.65028 15.5905 3.1765C17.1824 4.70204 18.0725 6.76646 18.0725 8.91431C18.0725 10.3517 17.5482 11.943 16.7217 13.5477C15.8984 15.1465 14.7947 16.7211 13.6817 18.1154C12.57 19.5081 11.4569 20.7108 10.6212 21.5658C10.2036 21.9929 9.85605 22.3326 9.61345 22.5648ZM6.04458 12.3247C6.98373 13.2247 8.25313 13.7268 9.57251 13.7268C10.8919 13.7268 12.1613 13.2247 13.1004 12.3247C14.0403 11.424 14.5725 10.1977 14.5725 8.91431C14.5725 7.63092 14.0403 6.40463 13.1004 5.50391C12.1613 4.60389 10.8919 4.10181 9.57251 4.10181C8.25313 4.10181 6.98373 4.60389 6.04458 5.50391C5.1047 6.40463 4.57251 7.63092 4.57251 8.91431C4.57251 10.1977 5.1047 11.424 6.04458 12.3247Z" fill="#838383" stroke="white"/>
</svg>
